<mxfile host="app.diagrams.net" agent="Mozilla/5.0 (Windows NT 10.0; Win64; x64) AppleWebKit/537.36 (KHTML, like Gecko) Chrome/131.0.0.0 Safari/537.36 Edg/131.0.0.0" version="25.0.3">
  <diagram id="FeOVMh4ihNpkE8Ya5csy" name="PÃ¡gina-1">
    <mxGraphModel dx="1869" dy="565" grid="1" gridSize="10" guides="1" tooltips="1" connect="1" arrows="1" fold="1" page="1" pageScale="1" pageWidth="827" pageHeight="1169" math="0" shadow="0">
      <root>
        <mxCell id="0" />
        <mxCell id="1" parent="0" />
        <mxCell id="qxDqduWelklkuFvpY7Tz-15" style="edgeStyle=orthogonalEdgeStyle;rounded=0;orthogonalLoop=1;jettySize=auto;html=1;exitX=0.5;exitY=1;exitDx=0;exitDy=0;entryX=0.5;entryY=0;entryDx=0;entryDy=0;" edge="1" parent="1" source="qxDqduWelklkuFvpY7Tz-16">
          <mxGeometry relative="1" as="geometry">
            <mxPoint x="135" y="110" as="targetPoint" />
          </mxGeometry>
        </mxCell>
        <mxCell id="qxDqduWelklkuFvpY7Tz-16" value="" style="ellipse;whiteSpace=wrap;html=1;aspect=fixed;fillColor=#d5e8d4;strokeColor=#82b366;" vertex="1" parent="1">
          <mxGeometry x="110" y="40" width="50" height="50" as="geometry" />
        </mxCell>
        <mxCell id="qxDqduWelklkuFvpY7Tz-17" style="edgeStyle=orthogonalEdgeStyle;rounded=0;orthogonalLoop=1;jettySize=auto;html=1;exitX=0.5;exitY=1;exitDx=0;exitDy=0;entryX=0.5;entryY=0;entryDx=0;entryDy=0;" edge="1" parent="1" target="qxDqduWelklkuFvpY7Tz-101">
          <mxGeometry relative="1" as="geometry">
            <mxPoint x="135" y="310" as="sourcePoint" />
          </mxGeometry>
        </mxCell>
        <mxCell id="qxDqduWelklkuFvpY7Tz-19" style="edgeStyle=orthogonalEdgeStyle;rounded=0;orthogonalLoop=1;jettySize=auto;html=1;exitX=0.5;exitY=1;exitDx=0;exitDy=0;entryX=0.5;entryY=0;entryDx=0;entryDy=0;" edge="1" parent="1" source="qxDqduWelklkuFvpY7Tz-21" target="qxDqduWelklkuFvpY7Tz-24">
          <mxGeometry relative="1" as="geometry" />
        </mxCell>
        <mxCell id="qxDqduWelklkuFvpY7Tz-20" style="edgeStyle=orthogonalEdgeStyle;rounded=0;orthogonalLoop=1;jettySize=auto;html=1;exitX=1;exitY=0.5;exitDx=0;exitDy=0;entryX=0;entryY=0.5;entryDx=0;entryDy=0;" edge="1" parent="1" source="qxDqduWelklkuFvpY7Tz-21" target="qxDqduWelklkuFvpY7Tz-32">
          <mxGeometry relative="1" as="geometry" />
        </mxCell>
        <mxCell id="qxDqduWelklkuFvpY7Tz-21" value="Selecao == 1" style="rhombus;whiteSpace=wrap;html=1;fillColor=#ffe6cc;strokeColor=#d79b00;" vertex="1" parent="1">
          <mxGeometry x="95" y="486" width="80" height="80" as="geometry" />
        </mxCell>
        <mxCell id="qxDqduWelklkuFvpY7Tz-22" style="edgeStyle=orthogonalEdgeStyle;rounded=0;orthogonalLoop=1;jettySize=auto;html=1;exitX=0.5;exitY=1;exitDx=0;exitDy=0;entryX=0.5;entryY=0;entryDx=0;entryDy=0;" edge="1" parent="1" source="qxDqduWelklkuFvpY7Tz-24" target="qxDqduWelklkuFvpY7Tz-27">
          <mxGeometry relative="1" as="geometry" />
        </mxCell>
        <mxCell id="qxDqduWelklkuFvpY7Tz-23" style="edgeStyle=orthogonalEdgeStyle;rounded=0;orthogonalLoop=1;jettySize=auto;html=1;exitX=1;exitY=0.5;exitDx=0;exitDy=0;entryX=0;entryY=0.5;entryDx=0;entryDy=0;" edge="1" parent="1" source="qxDqduWelklkuFvpY7Tz-24" target="qxDqduWelklkuFvpY7Tz-34">
          <mxGeometry relative="1" as="geometry" />
        </mxCell>
        <mxCell id="qxDqduWelklkuFvpY7Tz-24" value="Selecao == 2" style="rhombus;whiteSpace=wrap;html=1;fillColor=#ffe6cc;strokeColor=#d79b00;" vertex="1" parent="1">
          <mxGeometry x="95" y="586" width="80" height="80" as="geometry" />
        </mxCell>
        <mxCell id="qxDqduWelklkuFvpY7Tz-25" style="edgeStyle=orthogonalEdgeStyle;rounded=0;orthogonalLoop=1;jettySize=auto;html=1;exitX=0.5;exitY=1;exitDx=0;exitDy=0;entryX=0.5;entryY=0;entryDx=0;entryDy=0;" edge="1" parent="1" source="qxDqduWelklkuFvpY7Tz-27" target="qxDqduWelklkuFvpY7Tz-30">
          <mxGeometry relative="1" as="geometry" />
        </mxCell>
        <mxCell id="qxDqduWelklkuFvpY7Tz-26" style="edgeStyle=orthogonalEdgeStyle;rounded=0;orthogonalLoop=1;jettySize=auto;html=1;exitX=1;exitY=0.5;exitDx=0;exitDy=0;entryX=0;entryY=0.5;entryDx=0;entryDy=0;" edge="1" parent="1" source="qxDqduWelklkuFvpY7Tz-27" target="qxDqduWelklkuFvpY7Tz-36">
          <mxGeometry relative="1" as="geometry" />
        </mxCell>
        <mxCell id="qxDqduWelklkuFvpY7Tz-27" value="Selecao == 3" style="rhombus;whiteSpace=wrap;html=1;fillColor=#ffe6cc;strokeColor=#d79b00;" vertex="1" parent="1">
          <mxGeometry x="95" y="686" width="80" height="80" as="geometry" />
        </mxCell>
        <mxCell id="qxDqduWelklkuFvpY7Tz-28" style="edgeStyle=orthogonalEdgeStyle;rounded=0;orthogonalLoop=1;jettySize=auto;html=1;exitX=1;exitY=0.5;exitDx=0;exitDy=0;entryX=0;entryY=0.5;entryDx=0;entryDy=0;" edge="1" parent="1" source="qxDqduWelklkuFvpY7Tz-30" target="qxDqduWelklkuFvpY7Tz-38">
          <mxGeometry relative="1" as="geometry" />
        </mxCell>
        <mxCell id="qxDqduWelklkuFvpY7Tz-29" style="edgeStyle=orthogonalEdgeStyle;rounded=0;orthogonalLoop=1;jettySize=auto;html=1;exitX=0.5;exitY=1;exitDx=0;exitDy=0;entryX=0.5;entryY=0;entryDx=0;entryDy=0;" edge="1" parent="1" source="qxDqduWelklkuFvpY7Tz-30" target="qxDqduWelklkuFvpY7Tz-80">
          <mxGeometry relative="1" as="geometry" />
        </mxCell>
        <mxCell id="qxDqduWelklkuFvpY7Tz-30" value="Selecao == 4" style="rhombus;whiteSpace=wrap;html=1;fillColor=#ffe6cc;strokeColor=#d79b00;" vertex="1" parent="1">
          <mxGeometry x="95" y="786" width="80" height="80" as="geometry" />
        </mxCell>
        <mxCell id="qxDqduWelklkuFvpY7Tz-31" style="edgeStyle=orthogonalEdgeStyle;rounded=0;orthogonalLoop=1;jettySize=auto;html=1;exitX=1;exitY=0.5;exitDx=0;exitDy=0;entryX=1;entryY=0.5;entryDx=0;entryDy=0;" edge="1" parent="1" source="qxDqduWelklkuFvpY7Tz-32" target="qxDqduWelklkuFvpY7Tz-40">
          <mxGeometry relative="1" as="geometry">
            <Array as="points">
              <mxPoint x="470" y="526" />
              <mxPoint x="470" y="1100" />
            </Array>
          </mxGeometry>
        </mxCell>
        <mxCell id="qxDqduWelklkuFvpY7Tz-32" value="Resultado = Soma_Num(Num1, Num2)" style="rounded=0;whiteSpace=wrap;html=1;fillColor=#e1d5e7;strokeColor=#9673a6;" vertex="1" parent="1">
          <mxGeometry x="194" y="506" width="219.5" height="40" as="geometry" />
        </mxCell>
        <mxCell id="qxDqduWelklkuFvpY7Tz-33" style="edgeStyle=orthogonalEdgeStyle;rounded=0;orthogonalLoop=1;jettySize=auto;html=1;exitX=1;exitY=0.5;exitDx=0;exitDy=0;entryX=1;entryY=0.5;entryDx=0;entryDy=0;" edge="1" parent="1" source="qxDqduWelklkuFvpY7Tz-34" target="qxDqduWelklkuFvpY7Tz-40">
          <mxGeometry relative="1" as="geometry">
            <Array as="points">
              <mxPoint x="470" y="626" />
              <mxPoint x="470" y="1100" />
            </Array>
          </mxGeometry>
        </mxCell>
        <mxCell id="qxDqduWelklkuFvpY7Tz-34" value="Resultado = Subtracao_Num(Num1, Num2)" style="rounded=0;whiteSpace=wrap;html=1;fillColor=#e1d5e7;strokeColor=#9673a6;" vertex="1" parent="1">
          <mxGeometry x="194" y="606" width="239.5" height="40" as="geometry" />
        </mxCell>
        <mxCell id="qxDqduWelklkuFvpY7Tz-35" style="edgeStyle=orthogonalEdgeStyle;rounded=0;orthogonalLoop=1;jettySize=auto;html=1;exitX=1;exitY=0.5;exitDx=0;exitDy=0;entryX=1;entryY=0.5;entryDx=0;entryDy=0;" edge="1" parent="1" source="qxDqduWelklkuFvpY7Tz-36" target="qxDqduWelklkuFvpY7Tz-40">
          <mxGeometry relative="1" as="geometry">
            <Array as="points">
              <mxPoint x="470" y="726" />
              <mxPoint x="470" y="1100" />
            </Array>
          </mxGeometry>
        </mxCell>
        <mxCell id="qxDqduWelklkuFvpY7Tz-36" value="Resultado = Multiplicacao_Num(Num1, Num2)" style="rounded=0;whiteSpace=wrap;html=1;fillColor=#e1d5e7;strokeColor=#9673a6;" vertex="1" parent="1">
          <mxGeometry x="194" y="706" width="257.5" height="40" as="geometry" />
        </mxCell>
        <mxCell id="qxDqduWelklkuFvpY7Tz-37" style="edgeStyle=orthogonalEdgeStyle;rounded=0;orthogonalLoop=1;jettySize=auto;html=1;exitX=1;exitY=0.5;exitDx=0;exitDy=0;entryX=1;entryY=0.5;entryDx=0;entryDy=0;" edge="1" parent="1" source="qxDqduWelklkuFvpY7Tz-38" target="qxDqduWelklkuFvpY7Tz-40">
          <mxGeometry relative="1" as="geometry">
            <Array as="points">
              <mxPoint x="470" y="826" />
              <mxPoint x="470" y="1100" />
            </Array>
          </mxGeometry>
        </mxCell>
        <mxCell id="qxDqduWelklkuFvpY7Tz-38" value="Resultado = Divisao_Num(Num1, Num2)" style="rounded=0;whiteSpace=wrap;html=1;fillColor=#e1d5e7;strokeColor=#9673a6;" vertex="1" parent="1">
          <mxGeometry x="194" y="806" width="237.5" height="40" as="geometry" />
        </mxCell>
        <mxCell id="qxDqduWelklkuFvpY7Tz-39" style="edgeStyle=orthogonalEdgeStyle;rounded=0;orthogonalLoop=1;jettySize=auto;html=1;exitX=0.5;exitY=1;exitDx=0;exitDy=0;" edge="1" parent="1" source="qxDqduWelklkuFvpY7Tz-40" target="qxDqduWelklkuFvpY7Tz-64">
          <mxGeometry relative="1" as="geometry" />
        </mxCell>
        <mxCell id="qxDqduWelklkuFvpY7Tz-40" value="" style="ellipse;whiteSpace=wrap;html=1;aspect=fixed;fillColor=#ffe6cc;strokeColor=#d79b00;" vertex="1" parent="1">
          <mxGeometry x="110" y="1075" width="50" height="50" as="geometry" />
        </mxCell>
        <mxCell id="qxDqduWelklkuFvpY7Tz-41" value="" style="ellipse;whiteSpace=wrap;html=1;aspect=fixed;fillColor=#f8cecc;strokeColor=#b85450;" vertex="1" parent="1">
          <mxGeometry x="110.00000000000001" y="1467" width="50" height="50" as="geometry" />
        </mxCell>
        <mxCell id="qxDqduWelklkuFvpY7Tz-42" value="Main" style="text;html=1;align=center;verticalAlign=middle;resizable=0;points=[];autosize=1;strokeColor=none;fillColor=none;fontSize=29;fontStyle=1" vertex="1" parent="1">
          <mxGeometry x="90.00999999999999" width="90" height="50" as="geometry" />
        </mxCell>
        <mxCell id="qxDqduWelklkuFvpY7Tz-48" value="Selecao" style="shape=card;whiteSpace=wrap;html=1;fillColor=#fff2cc;strokeColor=#d6b656;" vertex="1" parent="1">
          <mxGeometry x="100.00999999999999" y="250" width="70" height="60" as="geometry" />
        </mxCell>
        <mxCell id="qxDqduWelklkuFvpY7Tz-50" value="Soma_Num" style="text;html=1;align=center;verticalAlign=middle;resizable=0;points=[];autosize=1;strokeColor=none;fillColor=none;fontSize=29;fontStyle=1" vertex="1" parent="1">
          <mxGeometry x="222.75" y="10" width="180" height="50" as="geometry" />
        </mxCell>
        <mxCell id="qxDqduWelklkuFvpY7Tz-51" value="Entrada: int Num1, int Num2&lt;div&gt;SaÃ­da: int Soma&lt;/div&gt;" style="text;html=1;align=center;verticalAlign=middle;resizable=0;points=[];autosize=1;strokeColor=none;fillColor=none;" vertex="1" parent="1">
          <mxGeometry x="227.75" y="60" width="170" height="40" as="geometry" />
        </mxCell>
        <mxCell id="qxDqduWelklkuFvpY7Tz-52" style="edgeStyle=orthogonalEdgeStyle;rounded=0;orthogonalLoop=1;jettySize=auto;html=1;exitX=0.5;exitY=1;exitDx=0;exitDy=0;entryX=0.5;entryY=0;entryDx=0;entryDy=0;" edge="1" parent="1" source="qxDqduWelklkuFvpY7Tz-53" target="qxDqduWelklkuFvpY7Tz-55">
          <mxGeometry relative="1" as="geometry" />
        </mxCell>
        <mxCell id="qxDqduWelklkuFvpY7Tz-53" value="" style="ellipse;whiteSpace=wrap;html=1;aspect=fixed;fillColor=#d5e8d4;strokeColor=#82b366;" vertex="1" parent="1">
          <mxGeometry x="287.75" y="100" width="50" height="50" as="geometry" />
        </mxCell>
        <mxCell id="qxDqduWelklkuFvpY7Tz-54" style="edgeStyle=orthogonalEdgeStyle;rounded=0;orthogonalLoop=1;jettySize=auto;html=1;exitX=0.5;exitY=1;exitDx=0;exitDy=0;entryX=0.5;entryY=0;entryDx=0;entryDy=0;" edge="1" parent="1" source="qxDqduWelklkuFvpY7Tz-55" target="qxDqduWelklkuFvpY7Tz-56">
          <mxGeometry relative="1" as="geometry" />
        </mxCell>
        <mxCell id="qxDqduWelklkuFvpY7Tz-55" value="Soma = Num1 + Num2" style="rounded=0;whiteSpace=wrap;html=1;fillColor=#e1d5e7;strokeColor=#9673a6;" vertex="1" parent="1">
          <mxGeometry x="245.25" y="170" width="135" height="30" as="geometry" />
        </mxCell>
        <mxCell id="qxDqduWelklkuFvpY7Tz-56" value="return&lt;div&gt;Soma&lt;/div&gt;" style="ellipse;whiteSpace=wrap;html=1;aspect=fixed;fillColor=#f8cecc;strokeColor=#b85450;" vertex="1" parent="1">
          <mxGeometry x="287.75" y="220" width="50" height="50" as="geometry" />
        </mxCell>
        <mxCell id="qxDqduWelklkuFvpY7Tz-57" style="edgeStyle=orthogonalEdgeStyle;rounded=0;orthogonalLoop=1;jettySize=auto;html=1;exitX=0.5;exitY=1;exitDx=0;exitDy=0;entryX=0.5;entryY=0;entryDx=0;entryDy=0;" edge="1" parent="1" source="qxDqduWelklkuFvpY7Tz-59" target="qxDqduWelklkuFvpY7Tz-41">
          <mxGeometry relative="1" as="geometry" />
        </mxCell>
        <mxCell id="qxDqduWelklkuFvpY7Tz-108" style="edgeStyle=orthogonalEdgeStyle;rounded=0;orthogonalLoop=1;jettySize=auto;html=1;exitX=0;exitY=0.5;exitDx=0;exitDy=0;entryX=0;entryY=0.5;entryDx=0;entryDy=0;" edge="1" parent="1" source="qxDqduWelklkuFvpY7Tz-59" target="qxDqduWelklkuFvpY7Tz-98">
          <mxGeometry relative="1" as="geometry">
            <Array as="points">
              <mxPoint x="-50" y="1407" />
              <mxPoint x="-50" y="180" />
            </Array>
          </mxGeometry>
        </mxCell>
        <mxCell id="qxDqduWelklkuFvpY7Tz-59" value="Selecao != 5" style="rhombus;whiteSpace=wrap;html=1;fillColor=#ffe6cc;strokeColor=#d79b00;" vertex="1" parent="1">
          <mxGeometry x="95.01" y="1367" width="80" height="80" as="geometry" />
        </mxCell>
        <mxCell id="qxDqduWelklkuFvpY7Tz-60" style="edgeStyle=orthogonalEdgeStyle;rounded=0;orthogonalLoop=1;jettySize=auto;html=1;exitX=0;exitY=0.5;exitDx=0;exitDy=0;entryX=0.5;entryY=0;entryDx=0;entryDy=0;" edge="1" parent="1" source="qxDqduWelklkuFvpY7Tz-64" target="qxDqduWelklkuFvpY7Tz-66">
          <mxGeometry relative="1" as="geometry" />
        </mxCell>
        <mxCell id="qxDqduWelklkuFvpY7Tz-61" value="V" style="edgeLabel;html=1;align=center;verticalAlign=middle;resizable=0;points=[];" vertex="1" connectable="0" parent="qxDqduWelklkuFvpY7Tz-60">
          <mxGeometry x="-0.5055" y="1" relative="1" as="geometry">
            <mxPoint x="-1" as="offset" />
          </mxGeometry>
        </mxCell>
        <mxCell id="qxDqduWelklkuFvpY7Tz-62" style="edgeStyle=orthogonalEdgeStyle;rounded=0;orthogonalLoop=1;jettySize=auto;html=1;exitX=1;exitY=0.5;exitDx=0;exitDy=0;entryX=1;entryY=0.5;entryDx=0;entryDy=0;" edge="1" parent="1" source="qxDqduWelklkuFvpY7Tz-64" target="qxDqduWelklkuFvpY7Tz-68">
          <mxGeometry relative="1" as="geometry">
            <Array as="points">
              <mxPoint x="230" y="1187" />
              <mxPoint x="230" y="1315" />
            </Array>
          </mxGeometry>
        </mxCell>
        <mxCell id="qxDqduWelklkuFvpY7Tz-63" value="F" style="edgeLabel;html=1;align=center;verticalAlign=middle;resizable=0;points=[];" vertex="1" connectable="0" parent="qxDqduWelklkuFvpY7Tz-62">
          <mxGeometry x="-0.8244" y="2" relative="1" as="geometry">
            <mxPoint y="1" as="offset" />
          </mxGeometry>
        </mxCell>
        <mxCell id="qxDqduWelklkuFvpY7Tz-64" value="Selecao &amp;gt;= 1 &amp;amp;&amp;amp; Selecao &amp;lt;=4" style="rhombus;whiteSpace=wrap;html=1;fillColor=#ffe6cc;strokeColor=#d79b00;" vertex="1" parent="1">
          <mxGeometry x="82.5" y="1137" width="105" height="100" as="geometry" />
        </mxCell>
        <mxCell id="qxDqduWelklkuFvpY7Tz-65" style="edgeStyle=orthogonalEdgeStyle;rounded=0;orthogonalLoop=1;jettySize=auto;html=1;exitX=0.5;exitY=0;exitDx=0;exitDy=0;entryX=0;entryY=0.5;entryDx=0;entryDy=0;" edge="1" parent="1" source="qxDqduWelklkuFvpY7Tz-66" target="qxDqduWelklkuFvpY7Tz-68">
          <mxGeometry relative="1" as="geometry">
            <Array as="points">
              <mxPoint x="30" y="1315" />
            </Array>
          </mxGeometry>
        </mxCell>
        <mxCell id="qxDqduWelklkuFvpY7Tz-66" value="&quot; Resultado da operaÃ§Ã£o: &quot;Resultado" style="shape=document;whiteSpace=wrap;html=1;boundedLbl=1;fillColor=#dae8fc;strokeColor=#6c8ebf;" vertex="1" parent="1">
          <mxGeometry x="-29.990000000000002" y="1227" width="120" height="80" as="geometry" />
        </mxCell>
        <mxCell id="qxDqduWelklkuFvpY7Tz-67" style="edgeStyle=orthogonalEdgeStyle;rounded=0;orthogonalLoop=1;jettySize=auto;html=1;exitX=0.5;exitY=1;exitDx=0;exitDy=0;entryX=0.5;entryY=0;entryDx=0;entryDy=0;" edge="1" parent="1" source="qxDqduWelklkuFvpY7Tz-68" target="qxDqduWelklkuFvpY7Tz-59">
          <mxGeometry relative="1" as="geometry" />
        </mxCell>
        <mxCell id="qxDqduWelklkuFvpY7Tz-68" value="" style="ellipse;whiteSpace=wrap;html=1;aspect=fixed;fillColor=#ffe6cc;strokeColor=#d79b00;" vertex="1" parent="1">
          <mxGeometry x="115.00999999999999" y="1295" width="40" height="40" as="geometry" />
        </mxCell>
        <mxCell id="qxDqduWelklkuFvpY7Tz-69" style="edgeStyle=orthogonalEdgeStyle;rounded=0;orthogonalLoop=1;jettySize=auto;html=1;exitX=0.5;exitY=1;exitDx=0;exitDy=0;exitPerimeter=0;entryX=0;entryY=0.5;entryDx=0;entryDy=0;" edge="1" parent="1" source="qxDqduWelklkuFvpY7Tz-70" target="qxDqduWelklkuFvpY7Tz-105">
          <mxGeometry relative="1" as="geometry">
            <Array as="points">
              <mxPoint x="60" y="450" />
            </Array>
          </mxGeometry>
        </mxCell>
        <mxCell id="qxDqduWelklkuFvpY7Tz-70" value="Num1, Num2" style="shape=card;whiteSpace=wrap;html=1;fillColor=#fff2cc;strokeColor=#d6b656;" vertex="1" parent="1">
          <mxGeometry x="20" y="390" width="80" height="45" as="geometry" />
        </mxCell>
        <mxCell id="qxDqduWelklkuFvpY7Tz-71" value="Subtracao_Num" style="text;html=1;align=center;verticalAlign=middle;resizable=0;points=[];autosize=1;strokeColor=none;fillColor=none;fontSize=29;fontStyle=1" vertex="1" parent="1">
          <mxGeometry x="410" y="15" width="230" height="50" as="geometry" />
        </mxCell>
        <mxCell id="qxDqduWelklkuFvpY7Tz-72" value="Entrada: int Num1, int Num2&lt;div&gt;SaÃ­da: int Subtracao&lt;/div&gt;" style="text;html=1;align=center;verticalAlign=middle;resizable=0;points=[];autosize=1;strokeColor=none;fillColor=none;" vertex="1" parent="1">
          <mxGeometry x="435" y="61" width="170" height="40" as="geometry" />
        </mxCell>
        <mxCell id="qxDqduWelklkuFvpY7Tz-73" style="edgeStyle=orthogonalEdgeStyle;rounded=0;orthogonalLoop=1;jettySize=auto;html=1;exitX=0.5;exitY=1;exitDx=0;exitDy=0;entryX=0.5;entryY=0;entryDx=0;entryDy=0;" edge="1" parent="1" source="qxDqduWelklkuFvpY7Tz-74" target="qxDqduWelklkuFvpY7Tz-76">
          <mxGeometry relative="1" as="geometry" />
        </mxCell>
        <mxCell id="qxDqduWelklkuFvpY7Tz-74" value="" style="ellipse;whiteSpace=wrap;html=1;aspect=fixed;fillColor=#d5e8d4;strokeColor=#82b366;" vertex="1" parent="1">
          <mxGeometry x="495" y="101" width="50" height="50" as="geometry" />
        </mxCell>
        <mxCell id="qxDqduWelklkuFvpY7Tz-75" style="edgeStyle=orthogonalEdgeStyle;rounded=0;orthogonalLoop=1;jettySize=auto;html=1;exitX=0.5;exitY=1;exitDx=0;exitDy=0;entryX=0.5;entryY=0;entryDx=0;entryDy=0;" edge="1" parent="1" source="qxDqduWelklkuFvpY7Tz-76" target="qxDqduWelklkuFvpY7Tz-77">
          <mxGeometry relative="1" as="geometry" />
        </mxCell>
        <mxCell id="qxDqduWelklkuFvpY7Tz-76" value="Subtracao = Num1 - Num2" style="rounded=0;whiteSpace=wrap;html=1;fillColor=#e1d5e7;strokeColor=#9673a6;" vertex="1" parent="1">
          <mxGeometry x="446.75" y="170" width="146.5" height="30" as="geometry" />
        </mxCell>
        <mxCell id="qxDqduWelklkuFvpY7Tz-77" value="return&lt;div&gt;Subtracao&lt;/div&gt;" style="ellipse;whiteSpace=wrap;html=1;aspect=fixed;fillColor=#f8cecc;strokeColor=#b85450;" vertex="1" parent="1">
          <mxGeometry x="495" y="220" width="50" height="50" as="geometry" />
        </mxCell>
        <mxCell id="qxDqduWelklkuFvpY7Tz-78" style="edgeStyle=orthogonalEdgeStyle;rounded=0;orthogonalLoop=1;jettySize=auto;html=1;exitX=1;exitY=0.5;exitDx=0;exitDy=0;entryX=1;entryY=0.5;entryDx=0;entryDy=0;" edge="1" parent="1" source="qxDqduWelklkuFvpY7Tz-80" target="qxDqduWelklkuFvpY7Tz-40">
          <mxGeometry relative="1" as="geometry">
            <Array as="points">
              <mxPoint x="470" y="925" />
              <mxPoint x="470" y="1100" />
            </Array>
          </mxGeometry>
        </mxCell>
        <mxCell id="qxDqduWelklkuFvpY7Tz-79" style="edgeStyle=orthogonalEdgeStyle;rounded=0;orthogonalLoop=1;jettySize=auto;html=1;exitX=0.5;exitY=1;exitDx=0;exitDy=0;entryX=0.5;entryY=0;entryDx=0;entryDy=0;" edge="1" parent="1" source="qxDqduWelklkuFvpY7Tz-80" target="qxDqduWelklkuFvpY7Tz-82">
          <mxGeometry relative="1" as="geometry" />
        </mxCell>
        <mxCell id="qxDqduWelklkuFvpY7Tz-80" value="Selecao == 5" style="rhombus;whiteSpace=wrap;html=1;fillColor=#ffe6cc;strokeColor=#d79b00;" vertex="1" parent="1">
          <mxGeometry x="95" y="885" width="80" height="80" as="geometry" />
        </mxCell>
        <mxCell id="qxDqduWelklkuFvpY7Tz-81" style="edgeStyle=orthogonalEdgeStyle;rounded=0;orthogonalLoop=1;jettySize=auto;html=1;exitX=0.5;exitY=0;exitDx=0;exitDy=0;entryX=0.5;entryY=0;entryDx=0;entryDy=0;" edge="1" parent="1" source="qxDqduWelklkuFvpY7Tz-82" target="qxDqduWelklkuFvpY7Tz-40">
          <mxGeometry relative="1" as="geometry">
            <Array as="points">
              <mxPoint x="135" y="1015" />
              <mxPoint x="135" y="1015" />
            </Array>
          </mxGeometry>
        </mxCell>
        <mxCell id="qxDqduWelklkuFvpY7Tz-82" value="&quot; SeleÃ§Ã£o invÃ¡lida&quot;" style="shape=document;whiteSpace=wrap;html=1;boundedLbl=1;fillColor=#dae8fc;strokeColor=#6c8ebf;" vertex="1" parent="1">
          <mxGeometry x="75" y="985" width="120" height="80" as="geometry" />
        </mxCell>
        <mxCell id="qxDqduWelklkuFvpY7Tz-83" value="Multiplicacao_Num" style="text;html=1;align=center;verticalAlign=middle;resizable=0;points=[];autosize=1;strokeColor=none;fillColor=none;fontSize=29;fontStyle=1" vertex="1" parent="1">
          <mxGeometry x="545" y="369.75" width="270" height="50" as="geometry" />
        </mxCell>
        <mxCell id="qxDqduWelklkuFvpY7Tz-84" value="Entrada: int Num1, int Num2&lt;div&gt;SaÃ­da: int Multiplicacao&lt;/div&gt;" style="text;html=1;align=center;verticalAlign=middle;resizable=0;points=[];autosize=1;strokeColor=none;fillColor=none;" vertex="1" parent="1">
          <mxGeometry x="590" y="415.75" width="170" height="40" as="geometry" />
        </mxCell>
        <mxCell id="qxDqduWelklkuFvpY7Tz-85" style="edgeStyle=orthogonalEdgeStyle;rounded=0;orthogonalLoop=1;jettySize=auto;html=1;exitX=0.5;exitY=1;exitDx=0;exitDy=0;entryX=0.5;entryY=0;entryDx=0;entryDy=0;" edge="1" parent="1" source="qxDqduWelklkuFvpY7Tz-86" target="qxDqduWelklkuFvpY7Tz-88">
          <mxGeometry relative="1" as="geometry" />
        </mxCell>
        <mxCell id="qxDqduWelklkuFvpY7Tz-86" value="" style="ellipse;whiteSpace=wrap;html=1;aspect=fixed;fillColor=#d5e8d4;strokeColor=#82b366;" vertex="1" parent="1">
          <mxGeometry x="650" y="455.75" width="50" height="50" as="geometry" />
        </mxCell>
        <mxCell id="qxDqduWelklkuFvpY7Tz-87" style="edgeStyle=orthogonalEdgeStyle;rounded=0;orthogonalLoop=1;jettySize=auto;html=1;exitX=0.5;exitY=1;exitDx=0;exitDy=0;entryX=0.5;entryY=0;entryDx=0;entryDy=0;" edge="1" parent="1" source="qxDqduWelklkuFvpY7Tz-88" target="qxDqduWelklkuFvpY7Tz-89">
          <mxGeometry relative="1" as="geometry" />
        </mxCell>
        <mxCell id="qxDqduWelklkuFvpY7Tz-88" value="Multiplicacao = Num1 * Num2" style="rounded=0;whiteSpace=wrap;html=1;fillColor=#e1d5e7;strokeColor=#9673a6;" vertex="1" parent="1">
          <mxGeometry x="582.75" y="521.75" width="187.25" height="30" as="geometry" />
        </mxCell>
        <mxCell id="qxDqduWelklkuFvpY7Tz-89" value="return&lt;div&gt;Multiplicacao&lt;/div&gt;" style="ellipse;whiteSpace=wrap;html=1;aspect=fixed;fillColor=#f8cecc;strokeColor=#b85450;" vertex="1" parent="1">
          <mxGeometry x="650" y="574.75" width="50" height="50" as="geometry" />
        </mxCell>
        <mxCell id="qxDqduWelklkuFvpY7Tz-90" value="Divisao_Num" style="text;html=1;align=center;verticalAlign=middle;resizable=0;points=[];autosize=1;strokeColor=none;fillColor=none;fontSize=29;fontStyle=1" vertex="1" parent="1">
          <mxGeometry x="397.75" y="286.25" width="200" height="50" as="geometry" />
        </mxCell>
        <mxCell id="qxDqduWelklkuFvpY7Tz-91" value="Entrada: int Num1, int Num2&lt;div&gt;SaÃ­da: float Divisao&lt;/div&gt;" style="text;html=1;align=center;verticalAlign=middle;resizable=0;points=[];autosize=1;strokeColor=none;fillColor=none;" vertex="1" parent="1">
          <mxGeometry x="412.75" y="329.75" width="170" height="40" as="geometry" />
        </mxCell>
        <mxCell id="qxDqduWelklkuFvpY7Tz-92" style="edgeStyle=orthogonalEdgeStyle;rounded=0;orthogonalLoop=1;jettySize=auto;html=1;exitX=0.5;exitY=1;exitDx=0;exitDy=0;entryX=0.5;entryY=0;entryDx=0;entryDy=0;" edge="1" parent="1" source="qxDqduWelklkuFvpY7Tz-93" target="qxDqduWelklkuFvpY7Tz-95">
          <mxGeometry relative="1" as="geometry" />
        </mxCell>
        <mxCell id="qxDqduWelklkuFvpY7Tz-93" value="" style="ellipse;whiteSpace=wrap;html=1;aspect=fixed;fillColor=#d5e8d4;strokeColor=#82b366;" vertex="1" parent="1">
          <mxGeometry x="472.75" y="369.75" width="50" height="50" as="geometry" />
        </mxCell>
        <mxCell id="qxDqduWelklkuFvpY7Tz-94" style="edgeStyle=orthogonalEdgeStyle;rounded=0;orthogonalLoop=1;jettySize=auto;html=1;exitX=0.5;exitY=1;exitDx=0;exitDy=0;entryX=0.5;entryY=0;entryDx=0;entryDy=0;" edge="1" parent="1" source="qxDqduWelklkuFvpY7Tz-95" target="qxDqduWelklkuFvpY7Tz-96">
          <mxGeometry relative="1" as="geometry" />
        </mxCell>
        <mxCell id="qxDqduWelklkuFvpY7Tz-95" value="Divisao = Num1 / Num2" style="rounded=0;whiteSpace=wrap;html=1;fillColor=#e1d5e7;strokeColor=#9673a6;" vertex="1" parent="1">
          <mxGeometry x="405.5" y="435.75" width="187.25" height="30" as="geometry" />
        </mxCell>
        <mxCell id="qxDqduWelklkuFvpY7Tz-96" value="return&lt;div&gt;Divisao&lt;/div&gt;" style="ellipse;whiteSpace=wrap;html=1;aspect=fixed;fillColor=#f8cecc;strokeColor=#b85450;" vertex="1" parent="1">
          <mxGeometry x="472.75" y="488.75" width="50" height="50" as="geometry" />
        </mxCell>
        <mxCell id="qxDqduWelklkuFvpY7Tz-97" style="edgeStyle=orthogonalEdgeStyle;rounded=0;orthogonalLoop=1;jettySize=auto;html=1;exitX=0.5;exitY=0;exitDx=0;exitDy=0;entryX=0.5;entryY=0;entryDx=0;entryDy=0;entryPerimeter=0;" edge="1" parent="1" source="qxDqduWelklkuFvpY7Tz-98" target="qxDqduWelklkuFvpY7Tz-48">
          <mxGeometry relative="1" as="geometry">
            <Array as="points">
              <mxPoint x="135.01" y="179" />
              <mxPoint x="135.01" y="179" />
            </Array>
          </mxGeometry>
        </mxCell>
        <mxCell id="qxDqduWelklkuFvpY7Tz-98" value="&quot; ===== SELEÃÃO =====&lt;div&gt;Soma = 1&lt;/div&gt;&lt;div&gt;SubtraÃ§Ã£o = 2&lt;/div&gt;&lt;div&gt;MultiplicaÃ§Ã£o = 3&lt;/div&gt;&lt;div&gt;DivisÃ£o = 4&lt;/div&gt;&lt;div&gt;Sair = 5&lt;/div&gt;" style="shape=document;whiteSpace=wrap;html=1;boundedLbl=1;fillColor=#dae8fc;strokeColor=#6c8ebf;" vertex="1" parent="1">
          <mxGeometry x="60.00999999999999" y="110" width="150" height="140" as="geometry" />
        </mxCell>
        <mxCell id="qxDqduWelklkuFvpY7Tz-99" style="edgeStyle=orthogonalEdgeStyle;rounded=0;orthogonalLoop=1;jettySize=auto;html=1;exitX=1;exitY=0.5;exitDx=0;exitDy=0;entryX=1;entryY=0.5;entryDx=0;entryDy=0;" edge="1" parent="1" source="qxDqduWelklkuFvpY7Tz-101" target="qxDqduWelklkuFvpY7Tz-105">
          <mxGeometry relative="1" as="geometry">
            <Array as="points">
              <mxPoint x="210" y="365" />
              <mxPoint x="210" y="450" />
            </Array>
          </mxGeometry>
        </mxCell>
        <mxCell id="qxDqduWelklkuFvpY7Tz-100" value="F" style="edgeLabel;html=1;align=center;verticalAlign=middle;resizable=0;points=[];" vertex="1" connectable="0" parent="qxDqduWelklkuFvpY7Tz-99">
          <mxGeometry x="-0.7188" y="-2" relative="1" as="geometry">
            <mxPoint as="offset" />
          </mxGeometry>
        </mxCell>
        <mxCell id="qxDqduWelklkuFvpY7Tz-101" value="Selecao != 5" style="rhombus;whiteSpace=wrap;html=1;fillColor=#ffe6cc;strokeColor=#d79b00;" vertex="1" parent="1">
          <mxGeometry x="99.99999999999999" y="330" width="70" height="70" as="geometry" />
        </mxCell>
        <mxCell id="qxDqduWelklkuFvpY7Tz-102" style="edgeStyle=orthogonalEdgeStyle;rounded=0;orthogonalLoop=1;jettySize=auto;html=1;exitX=0;exitY=0.5;exitDx=0;exitDy=0;entryX=0.5;entryY=0;entryDx=0;entryDy=0;entryPerimeter=0;" edge="1" parent="1" source="qxDqduWelklkuFvpY7Tz-101" target="qxDqduWelklkuFvpY7Tz-70">
          <mxGeometry relative="1" as="geometry" />
        </mxCell>
        <mxCell id="qxDqduWelklkuFvpY7Tz-103" value="V" style="edgeLabel;html=1;align=center;verticalAlign=middle;resizable=0;points=[];" vertex="1" connectable="0" parent="qxDqduWelklkuFvpY7Tz-102">
          <mxGeometry x="-0.4004" y="-3" relative="1" as="geometry">
            <mxPoint as="offset" />
          </mxGeometry>
        </mxCell>
        <mxCell id="qxDqduWelklkuFvpY7Tz-104" style="edgeStyle=orthogonalEdgeStyle;rounded=0;orthogonalLoop=1;jettySize=auto;html=1;exitX=0.5;exitY=1;exitDx=0;exitDy=0;entryX=0.5;entryY=0;entryDx=0;entryDy=0;" edge="1" parent="1" source="qxDqduWelklkuFvpY7Tz-105" target="qxDqduWelklkuFvpY7Tz-21">
          <mxGeometry relative="1" as="geometry" />
        </mxCell>
        <mxCell id="qxDqduWelklkuFvpY7Tz-105" value="" style="ellipse;whiteSpace=wrap;html=1;aspect=fixed;fillColor=#ffe6cc;strokeColor=#d79b00;" vertex="1" parent="1">
          <mxGeometry x="114.99999999999999" y="430" width="40" height="40" as="geometry" />
        </mxCell>
      </root>
    </mxGraphModel>
  </diagram>
</mxfile>
